<?xml version="1.0" encoding="UTF-8" standalone="no"?>
<!-- Created with Inkscape (http://www.inkscape.org/) -->

<svg
   width="120mm"
   height="160mm"
   viewBox="0 0 120 160"
   version="1.1"
   id="svg1"
   xml:space="preserve"
   inkscape:version="1.4 (e7c3feb100, 2024-10-09)"
   sodipodi:docname="p1.svg"
   xmlns:inkscape="http://www.inkscape.org/namespaces/inkscape"
   xmlns:sodipodi="http://sodipodi.sourceforge.net/DTD/sodipodi-0.dtd"
   xmlns="http://www.w3.org/2000/svg"
   xmlns:svg="http://www.w3.org/2000/svg"><sodipodi:namedview
     id="namedview1"
     pagecolor="#ffffff"
     bordercolor="#111111"
     borderopacity="1"
     inkscape:showpageshadow="0"
     inkscape:pageopacity="0"
     inkscape:pagecheckerboard="1"
     inkscape:deskcolor="#d1d1d1"
     inkscape:document-units="mm"
     showgrid="true"
     inkscape:zoom="2"
     inkscape:cx="152.5"
     inkscape:cy="281"
     inkscape:window-width="1920"
     inkscape:window-height="993"
     inkscape:window-x="0"
     inkscape:window-y="0"
     inkscape:window-maximized="1"
     inkscape:current-layer="layer1"><inkscape:grid
       id="grid1"
       units="mm"
       originx="0"
       originy="0"
       spacingx="0.99999997"
       spacingy="1"
       empcolor="#0099e5"
       empopacity="0.30196078"
       color="#0099e5"
       opacity="0.14901961"
       empspacing="10"
       enabled="true"
       visible="true"
       dotted="false" /></sodipodi:namedview><defs
     id="defs1"><inkscape:path-effect
       effect="bspline"
       id="path-effect120"
       is_visible="true"
       lpeversion="1.3"
       weight="50"
       steps="2"
       helper_size="0"
       apply_no_weight="true"
       apply_with_weight="true"
       only_selected="true"
       uniform="false" /><clipPath
       clipPathUnits="userSpaceOnUse"
       id="clipPath33"><rect
         style="fill:#000000;stroke:none;stroke-width:0.999995;stroke-linecap:butt;stroke-linejoin:bevel;paint-order:stroke markers fill;stop-color:#000000"
         id="rect33"
         width="46.19186"
         height="80.006783"
         x="74.999985"
         y="399.99661" /></clipPath><clipPath
       clipPathUnits="userSpaceOnUse"
       id="clipPath5"><path
         id="path5"
         style="stroke-width:0.1;stroke-linecap:square;paint-order:markers fill stroke;stop-color:#000000"
         d="m 438.25066,553.76374 859.87054,0 v 201.39554 l -859.87054,0 z"
         sodipodi:nodetypes="ccccc" /></clipPath><linearGradient
       id="swatch45"
       inkscape:swatch="solid"><stop
         style="stop-color:#000000;stop-opacity:1;"
         offset="0"
         id="stop45" /></linearGradient></defs><g
     inkscape:label="Layer 1"
     inkscape:groupmode="layer"
     id="layer1"
     transform="translate(-27.500003,-37.500003)"><circle
       style="fill:#000000;fill-opacity:1;stroke:none;stroke-width:8.47291;stroke-dasharray:none;stroke-dashoffset:0;stroke-opacity:1"
       id="ellipse3"
       cx="87.5"
       cy="117.5"
       r="45" /><path
       style="fill:#ffffff;fill-opacity:1;stroke:none;stroke-width:6.54515;stroke-linecap:butt;stroke-linejoin:miter;stroke-dasharray:none;stroke-dashoffset:0;stroke-opacity:1"
       d="m 61.319419,117.49996 c 6.981489,-1.74537 13.962977,-3.49074 18.326407,-7.85417 4.363448,-4.36343 6.108802,-11.34492 7.854174,-18.326391 1.163588,6.981471 2.327175,13.962961 6.690605,18.326391 4.36343,4.36343 11.926725,6.1088 19.489985,7.85417 -6.98148,1.74537 -13.962968,3.49075 -18.326398,7.85418 -4.36343,4.36343 -6.10882,11.34492 -7.854192,18.32642 -1.745372,-6.9815 -3.490726,-13.96299 -7.854174,-18.32642 -4.36343,-4.36343 -11.344918,-6.10881 -18.326407,-7.85418 z"
       id="path1"
       sodipodi:nodetypes="ccccccccc" /><ellipse
       style="fill:none;stroke:none;stroke-width:5;stroke-dasharray:none;stroke-dashoffset:0;stroke-opacity:1"
       id="circle3"
       cx="87.500122"
       cy="117.75"
       rx="26.68047"
       ry="26.430601" /><path
       style="fill:#ffffff;fill-opacity:1;stroke:none;stroke-width:6.54515;stroke-linecap:butt;stroke-linejoin:miter;stroke-dasharray:none;stroke-dashoffset:0;stroke-opacity:1"
       d="m 61.319419,117.49996 c 6.981489,-1.74537 13.962977,-3.49074 18.326407,-7.85417 4.363448,-4.36343 6.108802,-11.34492 7.854174,-18.326391 1.163588,6.981471 2.327175,13.962961 6.690605,18.326391 4.36343,4.36343 11.926725,6.1088 19.489985,7.85417 -6.98148,1.74537 -13.962968,3.49075 -18.326398,7.85418 -4.36343,4.36343 -6.10882,11.34492 -7.854192,18.32642 -1.745372,-6.9815 -3.490726,-13.96299 -7.854174,-18.32642 -4.36343,-4.36343 -11.344918,-6.10881 -18.326407,-7.85418 z"
       id="path3"
       sodipodi:nodetypes="ccccccccc" /><circle
       style="fill:none;stroke:#ffffff;stroke-width:4;stroke-dasharray:none;stroke-dashoffset:0;stroke-opacity:1"
       id="circle1"
       cx="87.5"
       cy="117.50001"
       r="37.519379" /></g></svg>
