<?xml version="1.0" encoding="UTF-8" standalone="no"?>
<!-- Created with Inkscape (http://www.inkscape.org/) -->

<svg
   width="120mm"
   height="160mm"
   viewBox="0 0 120 160"
   version="1.1"
   id="svg1"
   xml:space="preserve"
   inkscape:version="1.4 (e7c3feb100, 2024-10-09)"
   sodipodi:docname="p5r.svg"
   xmlns:inkscape="http://www.inkscape.org/namespaces/inkscape"
   xmlns:sodipodi="http://sodipodi.sourceforge.net/DTD/sodipodi-0.dtd"
   xmlns="http://www.w3.org/2000/svg"
   xmlns:svg="http://www.w3.org/2000/svg"><sodipodi:namedview
     id="namedview1"
     pagecolor="#ffffff"
     bordercolor="#111111"
     borderopacity="1"
     inkscape:showpageshadow="0"
     inkscape:pageopacity="0"
     inkscape:pagecheckerboard="1"
     inkscape:deskcolor="#d1d1d1"
     inkscape:document-units="mm"
     showgrid="true"
     inkscape:zoom="1"
     inkscape:cx="221"
     inkscape:cy="353"
     inkscape:window-width="1920"
     inkscape:window-height="993"
     inkscape:window-x="0"
     inkscape:window-y="0"
     inkscape:window-maximized="1"
     inkscape:current-layer="layer1"><inkscape:grid
       id="grid1"
       units="mm"
       originx="0"
       originy="0"
       spacingx="0.99999997"
       spacingy="1"
       empcolor="#0099e5"
       empopacity="0.30196078"
       color="#0099e5"
       opacity="0.14901961"
       empspacing="10"
       enabled="true"
       visible="true"
       dotted="false" /></sodipodi:namedview><defs
     id="defs1"><inkscape:path-effect
       effect="bspline"
       id="path-effect120"
       is_visible="true"
       lpeversion="1.3"
       weight="50"
       steps="2"
       helper_size="0"
       apply_no_weight="true"
       apply_with_weight="true"
       only_selected="true"
       uniform="false" /><clipPath
       clipPathUnits="userSpaceOnUse"
       id="clipPath33"><rect
         style="fill:#000000;stroke:none;stroke-width:0.999995;stroke-linecap:butt;stroke-linejoin:bevel;paint-order:stroke markers fill;stop-color:#000000"
         id="rect33"
         width="46.19186"
         height="80.006783"
         x="74.999985"
         y="399.99661" /></clipPath><clipPath
       clipPathUnits="userSpaceOnUse"
       id="clipPath5"><path
         id="path5"
         style="stroke-width:0.1;stroke-linecap:square;paint-order:markers fill stroke;stop-color:#000000"
         d="m 438.25066,553.76374 859.87054,0 v 201.39554 l -859.87054,0 z"
         sodipodi:nodetypes="ccccc" /></clipPath><linearGradient
       id="swatch45"
       inkscape:swatch="solid"><stop
         style="stop-color:#000000;stop-opacity:1;"
         offset="0"
         id="stop45" /></linearGradient></defs><g
     inkscape:label="Layer 1"
     inkscape:groupmode="layer"
     id="layer1"
     transform="translate(-27.500003,-37.500003)"><ellipse
       style="fill:#ff0000;fill-opacity:1;stroke:none;stroke-width:3.74999;stroke-linecap:butt;stroke-linejoin:miter;stroke-dasharray:none;stroke-dashoffset:0;stroke-opacity:1"
       id="path116-6"
       cx="112.5"
       cy="72.5"
       rx="15"
       ry="14.999999" /><path
       style="fill:#ffffff;fill-opacity:1;stroke:none;stroke-width:3.75;stroke-linecap:butt;stroke-linejoin:miter;stroke-dasharray:none;stroke-dashoffset:0;stroke-opacity:1"
       d="m 97.499998,72.500003 c 3.999992,-0.99999 7.999992,-1.99999 10.499992,-4.49999 2.50001,-2.5 3.5,-6.5 4.5,-10.500003 0.66667,4.000003 1.33334,8.000003 3.83334,10.500003 2.5,2.5 6.83335,3.5 11.16667,4.49999 -4,1.00001 -8,2.00001 -10.5,4.50001 -2.5,2.5 -3.50001,6.5 -4.50001,10.5 -1,-4 -1.99999,-8 -4.5,-10.5 -2.5,-2.50001 -6.5,-3.5 -10.499992,-4.50001 z"
       id="path115-1"
       sodipodi:nodetypes="ccccccccc" /><ellipse
       style="fill:#ff0000;fill-opacity:1;stroke:none;stroke-width:3.74999;stroke-linecap:butt;stroke-linejoin:miter;stroke-dasharray:none;stroke-dashoffset:0;stroke-opacity:1"
       id="path116-6-7"
       cx="112.5"
       cy="162.5"
       rx="15"
       ry="14.999999" /><path
       style="fill:#ffffff;fill-opacity:1;stroke:none;stroke-width:3.75;stroke-linecap:butt;stroke-linejoin:miter;stroke-dasharray:none;stroke-dashoffset:0;stroke-opacity:1"
       d="m 97.499998,162.5 c 3.999992,-1 7.999992,-1.99999 10.499992,-4.49999 2.50001,-2.50001 3.5,-6.5 4.5,-10.5 0.66667,4 1.33334,8 3.83334,10.49999 2.5,2.5 6.83335,3.5 11.16667,4.5 -4,1 -8,2 -10.5,4.50001 -2.5,2.5 -3.50001,6.5 -4.50001,10.5 -1,-4 -1.99999,-8 -4.5,-10.5 -2.5,-2.50001 -6.5,-3.50001 -10.499992,-4.50001 z"
       id="path115-1-7"
       sodipodi:nodetypes="ccccccccc" /><ellipse
       style="fill:#ff0000;fill-opacity:1;stroke:none;stroke-width:3.74999;stroke-linecap:butt;stroke-linejoin:miter;stroke-dasharray:none;stroke-dashoffset:0;stroke-opacity:1"
       id="path116-6-7-8"
       cx="87.499985"
       cy="117.5"
       rx="15"
       ry="14.999999" /><path
       style="fill:#ffffff;fill-opacity:1;stroke:none;stroke-width:3.75;stroke-linecap:butt;stroke-linejoin:miter;stroke-dasharray:none;stroke-dashoffset:0;stroke-opacity:1"
       d="m 72.499988,117.5 c 4,-1 8,-1.99999 10.5,-4.49999 2.50001,-2.50001 3.5,-6.5 4.5,-10.5 0.66667,4 1.33334,8 3.83334,10.49999 2.5,2.5 6.83334,3.5 11.166672,4.5 -4.000002,1 -8.000002,2 -10.500002,4.50001 -2.5,2.5 -3.50001,6.5 -4.50001,10.5 -1,-4 -1.99999,-8 -4.5,-10.5 -2.5,-2.50001 -6.5,-3.5 -10.5,-4.50001 z"
       id="path115-1-7-8"
       sodipodi:nodetypes="ccccccccc" /><ellipse
       style="fill:#ff0000;fill-opacity:1;stroke:none;stroke-width:3.74999;stroke-linecap:butt;stroke-linejoin:miter;stroke-dasharray:none;stroke-dashoffset:0;stroke-opacity:1"
       id="path116-6-7-5"
       cx="62.500004"
       cy="162.5"
       rx="15"
       ry="14.999999" /><path
       style="fill:#ffffff;fill-opacity:1;stroke:none;stroke-width:3.75;stroke-linecap:butt;stroke-linejoin:miter;stroke-dasharray:none;stroke-dashoffset:0;stroke-opacity:1"
       d="m 47.499998,162.5 c 4,-1 8,-1.99999 10.5,-4.49999 2.50001,-2.50001 3.5,-6.5 4.5,-10.5 0.66667,4 1.33334,8 3.83334,10.49999 2.5,2.5 6.83334,3.5 11.16667,4.5 -4,1 -8,2 -10.5,4.50001 -2.5,2.5 -3.50001,6.5 -4.50001,10.5 -1,-4 -1.99999,-8 -4.5,-10.5 -2.5,-2.50001 -6.5,-3.50001 -10.5,-4.50001 z"
       id="path115-1-7-6"
       sodipodi:nodetypes="ccccccccc" /><ellipse
       style="fill:#ff0000;fill-opacity:1;stroke:none;stroke-width:3.74999;stroke-linecap:butt;stroke-linejoin:miter;stroke-dasharray:none;stroke-dashoffset:0;stroke-opacity:1"
       id="path116-6-7-5-1"
       cx="62.500004"
       cy="72.5"
       rx="15"
       ry="14.999999" /><path
       style="fill:#ffffff;fill-opacity:1;stroke:none;stroke-width:3.75;stroke-linecap:butt;stroke-linejoin:miter;stroke-dasharray:none;stroke-dashoffset:0;stroke-opacity:1"
       d="m 47.499998,72.500003 c 4,-1 8,-1.99999 10.5,-4.49999 2.50001,-2.50001 3.5,-6.5 4.5,-10.500003 0.66667,4.000003 1.33334,8.000003 3.83334,10.499993 2.5,2.5 6.83334,3.5 11.16667,4.5 -4,1 -8,2 -10.5,4.50001 -2.5,2.5 -3.50001,6.5 -4.50001,10.5 -1,-4 -1.99999,-8 -4.5,-10.5 -2.5,-2.50001 -6.5,-3.5 -10.5,-4.50001 z"
       id="path115-1-7-6-2"
       sodipodi:nodetypes="ccccccccc" /><circle
       style="fill:none;stroke:#ff0000;stroke-width:3;stroke-linejoin:bevel;stroke-dasharray:none"
       id="path1-6-8"
       cx="62.500004"
       cy="72.5"
       r="20" /><circle
       style="fill:none;stroke:#ff0000;stroke-width:3;stroke-linejoin:bevel;stroke-dasharray:none"
       id="circle1"
       cx="112.49998"
       cy="72.5"
       r="20" /><circle
       style="fill:none;stroke:#ff0000;stroke-width:3;stroke-linejoin:bevel;stroke-dasharray:none"
       id="circle1-3"
       cx="87.499985"
       cy="117.5"
       r="20" /><circle
       style="fill:none;stroke:#ff0000;stroke-width:3;stroke-linejoin:bevel;stroke-dasharray:none"
       id="circle2"
       cx="62.500004"
       cy="162.5"
       r="20" /><circle
       style="fill:none;stroke:#ff0000;stroke-width:3;stroke-linejoin:bevel;stroke-dasharray:none"
       id="circle3"
       cx="112.5"
       cy="162.5"
       r="20" /></g></svg>
