<?xml version="1.0" encoding="UTF-8" standalone="no"?>
<!-- Created with Inkscape (http://www.inkscape.org/) -->

<svg
   width="120mm"
   height="160mm"
   viewBox="0 0 120 160"
   version="1.1"
   id="svg1"
   xml:space="preserve"
   inkscape:version="1.4 (e7c3feb100, 2024-10-09)"
   sodipodi:docname="p7.svg"
   xmlns:inkscape="http://www.inkscape.org/namespaces/inkscape"
   xmlns:sodipodi="http://sodipodi.sourceforge.net/DTD/sodipodi-0.dtd"
   xmlns="http://www.w3.org/2000/svg"
   xmlns:svg="http://www.w3.org/2000/svg"><sodipodi:namedview
     id="namedview1"
     pagecolor="#ffffff"
     bordercolor="#111111"
     borderopacity="1"
     inkscape:showpageshadow="0"
     inkscape:pageopacity="0"
     inkscape:pagecheckerboard="1"
     inkscape:deskcolor="#d1d1d1"
     inkscape:document-units="mm"
     showgrid="true"
     inkscape:zoom="0.5"
     inkscape:cx="614"
     inkscape:cy="262"
     inkscape:window-width="1920"
     inkscape:window-height="993"
     inkscape:window-x="0"
     inkscape:window-y="0"
     inkscape:window-maximized="1"
     inkscape:current-layer="layer1"><inkscape:grid
       id="grid1"
       units="mm"
       originx="0"
       originy="0"
       spacingx="0.99999997"
       spacingy="1"
       empcolor="#0099e5"
       empopacity="0.30196078"
       color="#0099e5"
       opacity="0.14901961"
       empspacing="10"
       enabled="true"
       visible="true"
       dotted="false" /></sodipodi:namedview><defs
     id="defs1"><inkscape:path-effect
       effect="bspline"
       id="path-effect120"
       is_visible="true"
       lpeversion="1.3"
       weight="50"
       steps="2"
       helper_size="0"
       apply_no_weight="true"
       apply_with_weight="true"
       only_selected="true"
       uniform="false" /><clipPath
       clipPathUnits="userSpaceOnUse"
       id="clipPath33"><rect
         style="fill:#000000;stroke:none;stroke-width:0.999995;stroke-linecap:butt;stroke-linejoin:bevel;paint-order:stroke markers fill;stop-color:#000000"
         id="rect33"
         width="46.19186"
         height="80.006783"
         x="74.999985"
         y="399.99661" /></clipPath><clipPath
       clipPathUnits="userSpaceOnUse"
       id="clipPath5"><path
         id="path5"
         style="stroke-width:0.1;stroke-linecap:square;paint-order:markers fill stroke;stop-color:#000000"
         d="m 438.25066,553.76374 859.87054,0 v 201.39554 l -859.87054,0 z"
         sodipodi:nodetypes="ccccc" /></clipPath><linearGradient
       id="swatch45"
       inkscape:swatch="solid"><stop
         style="stop-color:#000000;stop-opacity:1;"
         offset="0"
         id="stop45" /></linearGradient></defs><g
     inkscape:label="Layer 1"
     inkscape:groupmode="layer"
     id="layer1"
     transform="translate(-27.500003,-37.500003)"><circle
       style="fill:#ffffff;stroke:#000000;stroke-width:3;stroke-linejoin:bevel;stroke-dasharray:none;fill-opacity:1"
       id="circle4"
       cx="122.5"
       cy="87.5"
       r="20" /><circle
       style="fill:#ffffff;stroke:#000000;stroke-width:3;stroke-linejoin:bevel;stroke-dasharray:none;fill-opacity:1"
       id="circle5"
       cx="87.499939"
       cy="77.499992"
       r="20" /><circle
       style="fill:#ffffff;stroke:#000000;stroke-width:3;stroke-linejoin:bevel;stroke-dasharray:none;fill-opacity:1"
       id="circle6"
       r="20"
       cy="67.5"
       cx="52.500004" /><circle
       style="fill:#ffffff;fill-opacity:1;stroke:none;stroke-width:0;stroke-linejoin:bevel;stroke-dasharray:none;stroke-opacity:1"
       id="circle10"
       cx="87.5"
       cy="77"
       r="18.5" /><circle
       style="fill:#ffffff;fill-opacity:1;stroke:none;stroke-width:0;stroke-linejoin:bevel;stroke-dasharray:none;stroke-opacity:1"
       id="path9"
       cx="122.5"
       cy="87.5"
       r="18.5" /><ellipse
       style="fill:#000000;fill-opacity:1;stroke:none;stroke-width:3.74999;stroke-linecap:butt;stroke-linejoin:miter;stroke-dasharray:none;stroke-dashoffset:0;stroke-opacity:1"
       id="path116-6"
       cx="122.50001"
       cy="87.5"
       rx="15"
       ry="14.999999" /><path
       style="fill:#ffffff;fill-opacity:1;stroke:none;stroke-width:3.75;stroke-linecap:butt;stroke-linejoin:miter;stroke-dasharray:none;stroke-dashoffset:0;stroke-opacity:1"
       d="m 107.5,87.500006 c 4,-0.999999 8,-1.999997 10.5,-4.499998 2.50001,-2.500001 3.5,-6.499999 4.5,-10.499999 0.66667,4 1.33334,7.999999 3.83334,10.499998 2.5,2.5 6.83334,3.5 11.16667,4.499999 -4,1.000001 -8,2.000001 -10.5,4.500003 -2.5,2.500003 -3.50001,6.500003 -4.50001,10.500001 -1,-3.999998 -1.99999,-7.999999 -4.5,-10.500002 -2.5,-2.500002 -6.5,-3.500001 -10.5,-4.500002 z"
       id="path115-1"
       sodipodi:nodetypes="ccccccccc" /><ellipse
       style="fill:#ff0000;fill-opacity:1;stroke:none;stroke-width:3.74999;stroke-linecap:butt;stroke-linejoin:miter;stroke-dasharray:none;stroke-dashoffset:0;stroke-opacity:1"
       id="path116-6-7"
       cx="107.50002"
       cy="167.50002"
       rx="15"
       ry="14.999999" /><path
       style="fill:#ffffff;fill-opacity:1;stroke:none;stroke-width:3.75;stroke-linecap:butt;stroke-linejoin:miter;stroke-dasharray:none;stroke-dashoffset:0;stroke-opacity:1"
       d="m 92.500016,167.50001 c 3.999997,-1 7.999994,-1.99999 10.499994,-4.49999 2.50001,-2.50001 3.5,-6.5 4.5,-10.5 0.66667,4 1.33334,8 3.83334,10.49999 2.5,2.5 6.83334,3.5 11.16667,4.5 -4,1 -8,2 -10.5,4.50001 -2.5,2.5 -3.50001,6.5 -4.50001,10.5 -1,-4 -1.99999,-8 -4.5,-10.5 -2.5,-2.50001 -6.499997,-3.50001 -10.499994,-4.50001 z"
       id="path115-1-7"
       sodipodi:nodetypes="ccccccccc" /><ellipse
       style="fill:#ff0000;fill-opacity:1;stroke:none;stroke-width:3.74999;stroke-linecap:butt;stroke-linejoin:miter;stroke-dasharray:none;stroke-dashoffset:0;stroke-opacity:1"
       id="path116-6-7-5"
       cx="67.5"
       cy="167.50002"
       rx="15"
       ry="14.999999" /><path
       style="fill:#ffffff;fill-opacity:1;stroke:none;stroke-width:3.75;stroke-linecap:butt;stroke-linejoin:miter;stroke-dasharray:none;stroke-dashoffset:0;stroke-opacity:1"
       d="m 52.500009,167.50001 c 4,-1 8,-1.99999 10.5,-4.49999 2.50001,-2.50001 3.5,-6.5 4.5,-10.5 0.66667,4 1.33334,8 3.83334,10.49999 2.5,2.5 6.83334,3.5 11.16667,4.5 -4,1 -8,2 -10.5,4.50001 -2.5,2.5 -3.50001,6.5 -4.50001,10.5 -1,-4 -1.99999,-8 -4.5,-10.5 -2.5,-2.50001 -6.5,-3.50001 -10.5,-4.50001 z"
       id="path115-1-7-6"
       sodipodi:nodetypes="ccccccccc" /><ellipse
       style="fill:#000000;fill-opacity:1;stroke:none;stroke-width:3.74999;stroke-linecap:butt;stroke-linejoin:miter;stroke-dasharray:none;stroke-dashoffset:0;stroke-opacity:1"
       id="path116-6-7-5-1"
       cx="52.500004"
       cy="67.5"
       rx="15"
       ry="14.999999" /><path
       style="fill:#ffffff;fill-opacity:1;stroke:none;stroke-width:3.75;stroke-linecap:butt;stroke-linejoin:miter;stroke-dasharray:none;stroke-dashoffset:0;stroke-opacity:1"
       d="m 37.500003,67.500002 c 4,-0.999999 8,-1.999997 10.5,-4.499998 2.50001,-2.500001 3.5,-6.499999 4.5,-10.499999 0.66667,4 1.33334,7.999999 3.83334,10.499998 2.5,2.5 6.83334,3.5 11.16667,4.499999 -4,1.000001 -8,2.000001 -10.5,4.500003 -2.5,2.500003 -3.50001,6.500003 -4.50001,10.500005 -1,-4.000002 -1.99999,-8.000003 -4.5,-10.500006 -2.5,-2.500002 -6.5,-3.500001 -10.5,-4.500002 z"
       id="path115-1-7-6-2"
       sodipodi:nodetypes="ccccccccc" /><ellipse
       style="fill:#ff0000;fill-opacity:1;stroke:none;stroke-width:3.74999;stroke-linecap:butt;stroke-linejoin:miter;stroke-dasharray:none;stroke-dashoffset:0;stroke-opacity:1"
       id="path116-6-3"
       cx="107.50001"
       cy="127.50001"
       rx="15"
       ry="14.999999" /><path
       style="fill:#ffffff;fill-opacity:1;stroke:none;stroke-width:3.75;stroke-linecap:butt;stroke-linejoin:miter;stroke-dasharray:none;stroke-dashoffset:0;stroke-opacity:1"
       d="m 92.500003,127.50001 c 4,-1 7.999997,-1.99999 10.499997,-4.49999 2.50001,-2.50001 3.5,-6.5 4.5,-10.5 0.66667,4 1.33334,8 3.83334,10.49999 2.5,2.5 6.83334,3.5 11.16667,4.5 -4,1 -8,2 -10.5,4.50001 -2.5,2.5 -3.50001,6.5 -4.50001,10.5 -1,-4 -1.99999,-8 -4.5,-10.5 -2.5,-2.50001 -6.499997,-3.5 -10.499997,-4.50001 z"
       id="path115-1-8"
       sodipodi:nodetypes="ccccccccc" /><ellipse
       style="fill:#ff0000;fill-opacity:1;stroke:none;stroke-width:3.74999;stroke-linecap:butt;stroke-linejoin:miter;stroke-dasharray:none;stroke-dashoffset:0;stroke-opacity:1"
       id="path116-6-7-5-1-6"
       cx="67.5"
       cy="127.50001"
       rx="15"
       ry="14.999999" /><path
       style="fill:#ffffff;fill-opacity:1;stroke:none;stroke-width:3.75;stroke-linecap:butt;stroke-linejoin:miter;stroke-dasharray:none;stroke-dashoffset:0;stroke-opacity:1"
       d="m 52.500012,127.5 c 4,-1 8,-1.99999 10.5,-4.49999 2.50001,-2.50001 3.5,-6.5 4.5,-10.5 0.66667,4 1.33334,8 3.83334,10.49999 2.5,2.5 6.83334,3.5 11.16667,4.5 -4,1 -8,2 -10.5,4.50001 -2.5,2.5 -3.50001,6.5 -4.50001,10.5 -1,-4 -1.99999,-8 -4.5,-10.5 -2.5,-2.50001 -6.5,-3.5 -10.5,-4.50001 z"
       id="path115-1-7-6-2-1"
       sodipodi:nodetypes="ccccccccc" /><ellipse
       style="fill:#000000;fill-opacity:1;stroke:none;stroke-width:3.74999;stroke-linecap:butt;stroke-linejoin:miter;stroke-dasharray:none;stroke-dashoffset:0;stroke-opacity:1"
       id="ellipse1"
       cx="87.500008"
       cy="77.5"
       rx="15"
       ry="14.999999" /><path
       style="fill:#ffffff;fill-opacity:1;stroke:none;stroke-width:3.75;stroke-linecap:butt;stroke-linejoin:miter;stroke-dasharray:none;stroke-dashoffset:0;stroke-opacity:1"
       d="m 72.500003,77.500006 c 4,-0.999999 8,-1.999997 10.5,-4.499998 2.50001,-2.500001 3.5,-6.499999 4.5,-10.499999 0.66667,4 1.33334,7.999999 3.83334,10.499998 2.5,2.5 6.833337,3.5 11.166667,4.499999 -4,1.000001 -7.999997,2.000001 -10.499997,4.500003 -2.5,2.500003 -3.50001,6.500003 -4.50001,10.500005 -1,-4.000002 -1.99999,-8.000003 -4.5,-10.500006 -2.5,-2.500002 -6.5,-3.500001 -10.5,-4.500002 z"
       id="path1"
       sodipodi:nodetypes="ccccccccc" /><circle
       style="fill:none;stroke:#ff0000;stroke-width:3;stroke-linejoin:bevel;stroke-dasharray:none"
       id="circle1-3"
       cx="67.499947"
       cy="127.5"
       r="20" /><circle
       style="fill:none;stroke:#ff0000;stroke-width:3;stroke-linejoin:bevel;stroke-dasharray:none"
       id="circle1"
       cx="107.50002"
       cy="127.5"
       r="20" /><circle
       style="fill:none;stroke:#ff0000;stroke-width:3;stroke-linejoin:bevel;stroke-dasharray:none"
       id="circle2"
       cx="67.499969"
       cy="167.49997"
       r="20" /><circle
       style="fill:none;stroke:#ff0000;stroke-width:3;stroke-linejoin:bevel;stroke-dasharray:none"
       id="circle3"
       cx="107.50003"
       cy="167.49997"
       r="20" /><circle
       style="fill:none;stroke:none;stroke-width:3;stroke-linejoin:bevel;stroke-dasharray:none"
       id="circle7"
       cx="122.5"
       cy="87.5"
       r="20" /><circle
       style="fill:none;stroke:none;stroke-width:3;stroke-linejoin:bevel;stroke-dasharray:none"
       id="circle8"
       cx="87.499939"
       cy="77.499992"
       r="20" /><circle
       style="fill:none;stroke:none;stroke-width:3;stroke-linejoin:bevel;stroke-dasharray:none"
       id="circle9"
       cx="52.500004"
       cy="67.5"
       r="20" /></g></svg>
