<?xml version="1.0" encoding="UTF-8" standalone="no"?>
<!-- Created with Inkscape (http://www.inkscape.org/) -->

<svg
   width="120mm"
   height="160mm"
   viewBox="0 0 120 160"
   version="1.1"
   id="svg1"
   xml:space="preserve"
   inkscape:version="1.4 (e7c3feb100, 2024-10-09)"
   sodipodi:docname="p8.svg"
   xmlns:inkscape="http://www.inkscape.org/namespaces/inkscape"
   xmlns:sodipodi="http://sodipodi.sourceforge.net/DTD/sodipodi-0.dtd"
   xmlns="http://www.w3.org/2000/svg"
   xmlns:svg="http://www.w3.org/2000/svg"><sodipodi:namedview
     id="namedview1"
     pagecolor="#ffffff"
     bordercolor="#111111"
     borderopacity="1"
     inkscape:showpageshadow="0"
     inkscape:pageopacity="0"
     inkscape:pagecheckerboard="1"
     inkscape:deskcolor="#d1d1d1"
     inkscape:document-units="mm"
     showgrid="true"
     inkscape:zoom="0.64657552"
     inkscape:cx="169.35377"
     inkscape:cy="239.72451"
     inkscape:window-width="1920"
     inkscape:window-height="993"
     inkscape:window-x="0"
     inkscape:window-y="0"
     inkscape:window-maximized="1"
     inkscape:current-layer="layer1"><inkscape:grid
       id="grid1"
       units="mm"
       originx="0"
       originy="0"
       spacingx="0.99999997"
       spacingy="1"
       empcolor="#0099e5"
       empopacity="0.30196078"
       color="#0099e5"
       opacity="0.14901961"
       empspacing="10"
       enabled="true"
       visible="true"
       dotted="false" /></sodipodi:namedview><defs
     id="defs1"><inkscape:path-effect
       effect="bspline"
       id="path-effect120"
       is_visible="true"
       lpeversion="1.3"
       weight="50"
       steps="2"
       helper_size="0"
       apply_no_weight="true"
       apply_with_weight="true"
       only_selected="true"
       uniform="false" /><clipPath
       clipPathUnits="userSpaceOnUse"
       id="clipPath33"><rect
         style="fill:#000000;stroke:none;stroke-width:0.999995;stroke-linecap:butt;stroke-linejoin:bevel;paint-order:stroke markers fill;stop-color:#000000"
         id="rect33"
         width="46.19186"
         height="80.006783"
         x="74.999985"
         y="399.99661" /></clipPath><clipPath
       clipPathUnits="userSpaceOnUse"
       id="clipPath5"><path
         id="path5"
         style="stroke-width:0.1;stroke-linecap:square;paint-order:markers fill stroke;stop-color:#000000"
         d="m 438.25066,553.76374 859.87054,0 v 201.39554 l -859.87054,0 z"
         sodipodi:nodetypes="ccccc" /></clipPath><linearGradient
       id="swatch45"
       inkscape:swatch="solid"><stop
         style="stop-color:#000000;stop-opacity:1;"
         offset="0"
         id="stop45" /></linearGradient></defs><g
     inkscape:label="Layer 1"
     inkscape:groupmode="layer"
     id="layer1"
     transform="translate(-27.500003,-37.500003)"><circle
       style="fill:#ffffff;fill-opacity:1;stroke:#000000;stroke-width:3;stroke-linejoin:bevel;stroke-dasharray:none"
       id="circle28"
       cx="64"
       cy="167.75"
       r="20" /><circle
       style="fill:#ffffff;fill-opacity:1;stroke:#000000;stroke-width:3;stroke-linejoin:bevel;stroke-dasharray:none"
       id="circle26"
       cx="64"
       cy="134.25"
       r="20" /><circle
       style="fill:#ffffff;fill-opacity:1;stroke:#000000;stroke-width:3;stroke-linejoin:bevel;stroke-dasharray:none"
       id="circle23"
       cx="64"
       cy="100.75"
       r="20" /><g
       id="g23"
       transform="translate(-53.499997,-101.25)"><circle
         style="fill:#ffffff;fill-opacity:1;stroke:#000000;stroke-width:3;stroke-linejoin:bevel;stroke-dasharray:none"
         id="circle15"
         cx="117.5"
         cy="168.5"
         r="20" /><circle
         style="fill:#ffffff;fill-opacity:1;stroke:none;stroke-width:0;stroke-linejoin:bevel;stroke-dasharray:none;stroke-opacity:1"
         id="circle19"
         cx="117.5"
         cy="168.5"
         r="18.5" /><ellipse
         style="fill:#000000;fill-opacity:1;stroke:none;stroke-width:3.74999;stroke-linecap:butt;stroke-linejoin:miter;stroke-dasharray:none;stroke-dashoffset:0;stroke-opacity:1"
         id="ellipse22"
         cx="117.5"
         cy="168.5"
         rx="15"
         ry="14.999999" /><path
         style="fill:#ffffff;fill-opacity:1;stroke:none;stroke-width:3.75;stroke-linecap:butt;stroke-linejoin:miter;stroke-dasharray:none;stroke-dashoffset:0;stroke-opacity:1"
         d="m 102.49999,168.5 c 4,-1 8,-2 10.5,-4.5 2.50001,-2.5 3.5,-6.5 4.5,-10.5 0.66667,4 1.33334,8 3.83334,10.5 2.5,2.5 6.83334,3.5 11.16667,4.5 -4,1 -7.99999,2 -10.49999,4.5 -2.5,2.5 -3.50001,6.5 -4.50001,10.5 -1,-4 -1.99999,-8 -4.5,-10.5 -2.5,-2.5 -6.5,-3.5 -10.50001,-4.5 z"
         id="path22"
         sodipodi:nodetypes="ccccccccc" /></g><circle
       style="fill:#ffffff;fill-opacity:1;stroke:none;stroke-width:0;stroke-linejoin:bevel;stroke-dasharray:none;stroke-opacity:1"
       id="circle24"
       cx="64"
       cy="100.75"
       r="18.5" /><ellipse
       style="fill:#000000;fill-opacity:1;stroke:none;stroke-width:3.74999;stroke-linecap:butt;stroke-linejoin:miter;stroke-dasharray:none;stroke-dashoffset:0;stroke-opacity:1"
       id="ellipse24"
       cx="64"
       cy="100.75"
       rx="15"
       ry="14.999999" /><path
       style="fill:#ffffff;fill-opacity:1;stroke:none;stroke-width:3.75;stroke-linecap:butt;stroke-linejoin:miter;stroke-dasharray:none;stroke-dashoffset:0;stroke-opacity:1"
       d="m 48.999993,100.75 c 4,-1.000001 8,-2.000001 10.5,-4.499998 2.50001,-2.5 3.5,-6.5 4.5,-10.5 0.66667,4 1.33334,8 3.83334,10.5 2.5,2.499997 6.83334,3.499997 11.16667,4.499998 -4,1 -7.99999,2 -10.49999,4.5 -2.5,2.5 -3.50001,6.5 -4.50001,10.5 -1,-4 -1.99999,-8 -4.5,-10.5 -2.5,-2.5 -6.5,-3.5 -10.50001,-4.5 z"
       id="path24"
       sodipodi:nodetypes="ccccccccc" /><circle
       style="fill:#ffffff;fill-opacity:1;stroke:none;stroke-width:0;stroke-linejoin:bevel;stroke-dasharray:none;stroke-opacity:1"
       id="circle27"
       cx="64"
       cy="134.25"
       r="18.5" /><ellipse
       style="fill:#000000;fill-opacity:1;stroke:none;stroke-width:3.74999;stroke-linecap:butt;stroke-linejoin:miter;stroke-dasharray:none;stroke-dashoffset:0;stroke-opacity:1"
       id="ellipse27"
       cx="64"
       cy="134.25"
       rx="15"
       ry="14.999999" /><path
       style="fill:#ffffff;fill-opacity:1;stroke:none;stroke-width:3.75;stroke-linecap:butt;stroke-linejoin:miter;stroke-dasharray:none;stroke-dashoffset:0;stroke-opacity:1"
       d="m 48.999993,134.25 c 4,-1 8,-2 10.5,-4.49999 2.50001,-2.5 3.5,-6.5 4.5,-10.5 0.66667,4 1.33334,8 3.83334,10.5 2.5,2.49999 6.83334,3.49999 11.16667,4.49999 -4,1 -7.99999,2 -10.49999,4.5 -2.5,2.5 -3.50001,6.5 -4.50001,10.5 -1,-4 -1.99999,-8 -4.5,-10.5 -2.5,-2.5 -6.5,-3.5 -10.50001,-4.5 z"
       id="path27"
       sodipodi:nodetypes="ccccccccc" /><circle
       style="fill:#ffffff;fill-opacity:1;stroke:none;stroke-width:0;stroke-linejoin:bevel;stroke-dasharray:none;stroke-opacity:1"
       id="circle29"
       cx="64"
       cy="167.75"
       r="18.5" /><ellipse
       style="fill:#000000;fill-opacity:1;stroke:none;stroke-width:3.74999;stroke-linecap:butt;stroke-linejoin:miter;stroke-dasharray:none;stroke-dashoffset:0;stroke-opacity:1"
       id="ellipse29"
       cx="64"
       cy="167.75"
       rx="15"
       ry="14.999999" /><path
       style="fill:#ffffff;fill-opacity:1;stroke:none;stroke-width:3.75;stroke-linecap:butt;stroke-linejoin:miter;stroke-dasharray:none;stroke-dashoffset:0;stroke-opacity:1"
       d="m 48.999993,167.75 c 4,-1 8,-2 10.5,-4.49999 2.50001,-2.5 3.5,-6.5 4.5,-10.5 0.66667,4 1.33334,8 3.83334,10.5 2.5,2.49999 6.83334,3.49999 11.16667,4.49999 -4,1 -7.99999,2 -10.49999,4.5 -2.5,2.5 -3.50001,6.5 -4.50001,10.5 -1,-4 -1.99999,-8 -4.5,-10.5 -2.5,-2.5 -6.5,-3.5 -10.50001,-4.5 z"
       id="path29"
       sodipodi:nodetypes="ccccccccc" /><g
       id="g37"
       transform="translate(51.999992,-1.750001)"><circle
         style="fill:#ffffff;fill-opacity:1;stroke:#000000;stroke-width:3;stroke-linejoin:bevel;stroke-dasharray:none"
         id="circle30"
         cx="59.000011"
         cy="169.5"
         r="20" /><circle
         style="fill:#ffffff;fill-opacity:1;stroke:#000000;stroke-width:3;stroke-linejoin:bevel;stroke-dasharray:none"
         id="circle31"
         cx="59.000011"
         cy="136"
         r="20" /><circle
         style="fill:#ffffff;fill-opacity:1;stroke:#000000;stroke-width:3;stroke-linejoin:bevel;stroke-dasharray:none"
         id="circle32"
         cx="59.000011"
         cy="102.5"
         r="20" /><g
         id="g34"
         transform="translate(-58.499989,-99.499996)"><circle
           style="fill:#ffffff;fill-opacity:1;stroke:#000000;stroke-width:3;stroke-linejoin:bevel;stroke-dasharray:none"
           id="circle33"
           cx="117.5"
           cy="168.5"
           r="20" /><circle
           style="fill:#ffffff;fill-opacity:1;stroke:none;stroke-width:0;stroke-linejoin:bevel;stroke-dasharray:none;stroke-opacity:1"
           id="circle34"
           cx="117.5"
           cy="168.5"
           r="18.5" /><ellipse
           style="fill:#000000;fill-opacity:1;stroke:none;stroke-width:3.74999;stroke-linecap:butt;stroke-linejoin:miter;stroke-dasharray:none;stroke-dashoffset:0;stroke-opacity:1"
           id="ellipse34"
           cx="117.5"
           cy="168.5"
           rx="15"
           ry="14.999999" /><path
           style="fill:#ffffff;fill-opacity:1;stroke:none;stroke-width:3.75;stroke-linecap:butt;stroke-linejoin:miter;stroke-dasharray:none;stroke-dashoffset:0;stroke-opacity:1"
           d="m 102.49999,168.5 c 4,-1 8,-2 10.5,-4.5 2.50001,-2.5 3.5,-6.5 4.5,-10.5 0.66667,4 1.33334,8 3.83334,10.5 2.5,2.5 6.83334,3.5 11.16667,4.5 -4,1 -7.99999,2 -10.49999,4.5 -2.5,2.5 -3.50001,6.5 -4.50001,10.5 -1,-4 -1.99999,-8 -4.5,-10.5 -2.5,-2.5 -6.5,-3.5 -10.50001,-4.5 z"
           id="path34"
           sodipodi:nodetypes="ccccccccc" /></g><circle
         style="fill:#ffffff;fill-opacity:1;stroke:none;stroke-width:0;stroke-linejoin:bevel;stroke-dasharray:none;stroke-opacity:1"
         id="circle35"
         cx="59.000011"
         cy="102.5"
         r="18.5" /><ellipse
         style="fill:#000000;fill-opacity:1;stroke:none;stroke-width:3.74999;stroke-linecap:butt;stroke-linejoin:miter;stroke-dasharray:none;stroke-dashoffset:0;stroke-opacity:1"
         id="ellipse35"
         cx="59.000011"
         cy="102.5"
         rx="15"
         ry="14.999999" /><path
         style="fill:#ffffff;fill-opacity:1;stroke:none;stroke-width:3.75;stroke-linecap:butt;stroke-linejoin:miter;stroke-dasharray:none;stroke-dashoffset:0;stroke-opacity:1"
         d="m 44.000001,102.5 c 4,-1 8,-2 10.5,-4.499997 2.50001,-2.5 3.5,-6.5 4.5,-10.5 0.66667,4 1.33334,8 3.83334,10.5 2.5,2.499997 6.83334,3.499997 11.16667,4.499997 -4,1 -7.99999,2 -10.49999,4.5 -2.5,2.5 -3.50001,6.5 -4.50001,10.5 -1,-4 -1.99999,-8 -4.5,-10.5 -2.5,-2.5 -6.5,-3.5 -10.50001,-4.5 z"
         id="path35"
         sodipodi:nodetypes="ccccccccc" /><circle
         style="fill:#ffffff;fill-opacity:1;stroke:none;stroke-width:0;stroke-linejoin:bevel;stroke-dasharray:none;stroke-opacity:1"
         id="circle36"
         cx="59.000011"
         cy="136"
         r="18.5" /><ellipse
         style="fill:#000000;fill-opacity:1;stroke:none;stroke-width:3.74999;stroke-linecap:butt;stroke-linejoin:miter;stroke-dasharray:none;stroke-dashoffset:0;stroke-opacity:1"
         id="ellipse36"
         cx="59.000011"
         cy="136"
         rx="15"
         ry="14.999999" /><path
         style="fill:#ffffff;fill-opacity:1;stroke:none;stroke-width:3.75;stroke-linecap:butt;stroke-linejoin:miter;stroke-dasharray:none;stroke-dashoffset:0;stroke-opacity:1"
         d="m 44.000001,136 c 4,-1 8,-2 10.5,-4.49999 2.50001,-2.5 3.5,-6.5 4.5,-10.5 0.66667,4 1.33334,8 3.83334,10.5 2.5,2.49999 6.83334,3.49999 11.16667,4.49999 -4,1 -7.99999,2 -10.49999,4.5 -2.5,2.5 -3.50001,6.5 -4.50001,10.5 -1,-4 -1.99999,-8 -4.5,-10.5 -2.5,-2.5 -6.5,-3.5 -10.50001,-4.5 z"
         id="path36"
         sodipodi:nodetypes="ccccccccc" /><circle
         style="fill:#ffffff;fill-opacity:1;stroke:none;stroke-width:0;stroke-linejoin:bevel;stroke-dasharray:none;stroke-opacity:1"
         id="circle37"
         cx="59.000011"
         cy="169.5"
         r="18.5" /><ellipse
         style="fill:#000000;fill-opacity:1;stroke:none;stroke-width:3.74999;stroke-linecap:butt;stroke-linejoin:miter;stroke-dasharray:none;stroke-dashoffset:0;stroke-opacity:1"
         id="ellipse37"
         cx="59.000011"
         cy="169.5"
         rx="15"
         ry="14.999999" /><path
         style="fill:#ffffff;fill-opacity:1;stroke:none;stroke-width:3.75;stroke-linecap:butt;stroke-linejoin:miter;stroke-dasharray:none;stroke-dashoffset:0;stroke-opacity:1"
         d="m 44.000001,169.5 c 4,-1 8,-2 10.5,-4.49999 2.50001,-2.5 3.5,-6.5 4.5,-10.5 0.66667,4 1.33334,8 3.83334,10.5 2.5,2.49999 6.83334,3.49999 11.16667,4.49999 -4,1 -7.99999,2 -10.49999,4.5 -2.5,2.5 -3.50001,6.5 -4.50001,10.5 -1,-4 -1.99999,-8 -4.5,-10.5 -2.5,-2.5 -6.5,-3.5 -10.50001,-4.5 z"
         id="path37"
         sodipodi:nodetypes="ccccccccc" /></g></g></svg>
