<?xml version="1.0" encoding="UTF-8" standalone="no"?>
<!-- Created with Inkscape (http://www.inkscape.org/) -->

<svg
   width="120mm"
   height="160mm"
   viewBox="0 0 120 160"
   version="1.1"
   id="svg1"
   xml:space="preserve"
   inkscape:version="1.4 (e7c3feb100, 2024-10-09)"
   sodipodi:docname="p9.svg"
   xmlns:inkscape="http://www.inkscape.org/namespaces/inkscape"
   xmlns:sodipodi="http://sodipodi.sourceforge.net/DTD/sodipodi-0.dtd"
   xmlns="http://www.w3.org/2000/svg"
   xmlns:svg="http://www.w3.org/2000/svg"><sodipodi:namedview
     id="namedview1"
     pagecolor="#ffffff"
     bordercolor="#111111"
     borderopacity="1"
     inkscape:showpageshadow="0"
     inkscape:pageopacity="0"
     inkscape:pagecheckerboard="1"
     inkscape:deskcolor="#d1d1d1"
     inkscape:document-units="mm"
     showgrid="true"
     inkscape:zoom="2"
     inkscape:cx="200"
     inkscape:cy="329.5"
     inkscape:window-width="1920"
     inkscape:window-height="993"
     inkscape:window-x="0"
     inkscape:window-y="0"
     inkscape:window-maximized="1"
     inkscape:current-layer="layer1"><inkscape:grid
       id="grid1"
       units="mm"
       originx="0"
       originy="0"
       spacingx="0.99999997"
       spacingy="1"
       empcolor="#0099e5"
       empopacity="0.30196078"
       color="#0099e5"
       opacity="0.14901961"
       empspacing="10"
       enabled="true"
       visible="true"
       dotted="false" /></sodipodi:namedview><defs
     id="defs1"><inkscape:path-effect
       effect="bspline"
       id="path-effect120"
       is_visible="true"
       lpeversion="1.3"
       weight="50"
       steps="2"
       helper_size="0"
       apply_no_weight="true"
       apply_with_weight="true"
       only_selected="true"
       uniform="false" /><clipPath
       clipPathUnits="userSpaceOnUse"
       id="clipPath33"><rect
         style="fill:#000000;stroke:none;stroke-width:0.999995;stroke-linecap:butt;stroke-linejoin:bevel;paint-order:stroke markers fill;stop-color:#000000"
         id="rect33"
         width="46.19186"
         height="80.006783"
         x="74.999985"
         y="399.99661" /></clipPath><clipPath
       clipPathUnits="userSpaceOnUse"
       id="clipPath5"><path
         id="path5"
         style="stroke-width:0.1;stroke-linecap:square;paint-order:markers fill stroke;stop-color:#000000"
         d="m 438.25066,553.76374 859.87054,0 v 201.39554 l -859.87054,0 z"
         sodipodi:nodetypes="ccccc" /></clipPath><linearGradient
       id="swatch45"
       inkscape:swatch="solid"><stop
         style="stop-color:#000000;stop-opacity:1;"
         offset="0"
         id="stop45" /></linearGradient></defs><g
     inkscape:label="Layer 1"
     inkscape:groupmode="layer"
     id="layer1"
     transform="translate(-27.500003,-37.500003)"><g
       id="g2"><circle
         style="fill:#ffffff;fill-opacity:1;stroke:#000000;stroke-width:3;stroke-linejoin:bevel;stroke-dasharray:none"
         id="circle15"
         cx="54.000004"
         cy="69"
         r="20" /><circle
         style="fill:#ffffff;fill-opacity:1;stroke:#000000;stroke-width:3;stroke-linejoin:bevel;stroke-dasharray:none"
         id="circle15-6"
         cx="121"
         cy="69"
         r="20" /><circle
         style="fill:#ffffff;fill-opacity:1;stroke:#000000;stroke-width:3;stroke-linejoin:bevel;stroke-dasharray:none"
         id="circle1"
         cx="87.5"
         cy="69"
         r="20" /><circle
         style="fill:#ffffff;fill-opacity:1;stroke:none;stroke-width:0;stroke-linejoin:bevel;stroke-dasharray:none;stroke-opacity:1"
         id="circle19"
         cx="54.000004"
         cy="69"
         r="18.5" /><circle
         style="fill:#ffffff;fill-opacity:1;stroke:none;stroke-width:0;stroke-linejoin:bevel;stroke-dasharray:none;stroke-opacity:1"
         id="circle19-4"
         cx="121"
         cy="69"
         r="18.5" /><circle
         style="fill:#ffffff;fill-opacity:1;stroke:none;stroke-width:0;stroke-linejoin:bevel;stroke-dasharray:none;stroke-opacity:1"
         id="circle2"
         cx="87.5"
         cy="69"
         r="18.5" /><ellipse
         style="fill:#000000;fill-opacity:1;stroke:none;stroke-width:3.74999;stroke-linecap:butt;stroke-linejoin:miter;stroke-dasharray:none;stroke-dashoffset:0;stroke-opacity:1"
         id="ellipse22"
         cx="54.000004"
         cy="69"
         rx="15"
         ry="14.999999" /><path
         style="fill:#ffffff;fill-opacity:1;stroke:none;stroke-width:3.75;stroke-linecap:butt;stroke-linejoin:miter;stroke-dasharray:none;stroke-dashoffset:0;stroke-opacity:1"
         d="m 38.999993,69.000003 c 4,-1 8,-2 10.5,-4.5 2.50001,-2.5 3.5,-6.5 4.5,-10.5 0.66667,4 1.33334,8 3.83334,10.5 2.5,2.5 6.83334,3.5 11.16667,4.5 -4,1 -7.99999,2 -10.49999,4.5 -2.5,2.5 -3.50001,6.5 -4.50001,10.5 -1,-4 -1.99999,-8 -4.5,-10.5 -2.5,-2.5 -6.5,-3.5 -10.50001,-4.5 z"
         id="path22"
         sodipodi:nodetypes="ccccccccc" /><ellipse
         style="fill:#000000;fill-opacity:1;stroke:none;stroke-width:3.74999;stroke-linecap:butt;stroke-linejoin:miter;stroke-dasharray:none;stroke-dashoffset:0;stroke-opacity:1"
         id="ellipse22-3"
         cx="121"
         cy="69"
         rx="15"
         ry="14.999999" /><path
         style="fill:#ffffff;fill-opacity:1;stroke:none;stroke-width:3.75;stroke-linecap:butt;stroke-linejoin:miter;stroke-dasharray:none;stroke-dashoffset:0;stroke-opacity:1"
         d="m 105.99999,69.000003 c 4,-1 8,-2 10.5,-4.5 2.50001,-2.5 3.5,-6.5 4.5,-10.5 0.66667,4 1.33334,8 3.83334,10.5 2.5,2.5 6.83334,3.5 11.16667,4.5 -4,1 -7.99999,2 -10.49999,4.5 -2.5,2.5 -3.50001,6.5 -4.50001,10.5 -1,-4 -1.99999,-8 -4.5,-10.5 -2.5,-2.5 -6.5,-3.5 -10.50001,-4.5 z"
         id="path22-0"
         sodipodi:nodetypes="ccccccccc" /><ellipse
         style="fill:#000000;fill-opacity:1;stroke:none;stroke-width:3.74999;stroke-linecap:butt;stroke-linejoin:miter;stroke-dasharray:none;stroke-dashoffset:0;stroke-opacity:1"
         id="ellipse2"
         cx="87.5"
         cy="69"
         rx="15"
         ry="14.999999" /><path
         style="fill:#ffffff;fill-opacity:1;stroke:none;stroke-width:3.75;stroke-linecap:butt;stroke-linejoin:miter;stroke-dasharray:none;stroke-dashoffset:0;stroke-opacity:1"
         d="m 72.499993,69.000003 c 4,-1 8,-2 10.5,-4.5 2.50001,-2.5 3.5,-6.5 4.5,-10.5 0.66667,4 1.33334,8 3.83334,10.5 2.5,2.5 6.83334,3.5 11.166667,4.5 -3.999997,1 -7.999987,2 -10.499987,4.5 -2.5,2.5 -3.50001,6.5 -4.50001,10.5 -1,-4 -1.99999,-8 -4.5,-10.5 -2.5,-2.5 -6.5,-3.5 -10.50001,-4.5 z"
         id="path2"
         sodipodi:nodetypes="ccccccccc" /></g><g
       id="g10"
       transform="translate(-1.4395195e-6,97.000004)"><circle
         style="fill:#ffffff;fill-opacity:1;stroke:#000000;stroke-width:3;stroke-linejoin:bevel;stroke-dasharray:none"
         id="circle3"
         cx="54.000004"
         cy="69"
         r="20" /><circle
         style="fill:#ffffff;fill-opacity:1;stroke:#000000;stroke-width:3;stroke-linejoin:bevel;stroke-dasharray:none"
         id="circle4"
         cx="121"
         cy="69"
         r="20" /><circle
         style="fill:#ffffff;fill-opacity:1;stroke:#000000;stroke-width:3;stroke-linejoin:bevel;stroke-dasharray:none"
         id="circle5"
         cx="87.5"
         cy="69"
         r="20" /><circle
         style="fill:#ffffff;fill-opacity:1;stroke:none;stroke-width:0;stroke-linejoin:bevel;stroke-dasharray:none;stroke-opacity:1"
         id="circle6"
         cx="54.000004"
         cy="69"
         r="18.5" /><circle
         style="fill:#ffffff;fill-opacity:1;stroke:none;stroke-width:0;stroke-linejoin:bevel;stroke-dasharray:none;stroke-opacity:1"
         id="circle7"
         cx="121"
         cy="69"
         r="18.5" /><circle
         style="fill:#ffffff;fill-opacity:1;stroke:none;stroke-width:0;stroke-linejoin:bevel;stroke-dasharray:none;stroke-opacity:1"
         id="circle8"
         cx="87.5"
         cy="69"
         r="18.5" /><ellipse
         style="fill:#000000;fill-opacity:1;stroke:none;stroke-width:3.74999;stroke-linecap:butt;stroke-linejoin:miter;stroke-dasharray:none;stroke-dashoffset:0;stroke-opacity:1"
         id="ellipse8"
         cx="54.000004"
         cy="69"
         rx="15"
         ry="14.999999" /><path
         style="fill:#ffffff;fill-opacity:1;stroke:none;stroke-width:3.75;stroke-linecap:butt;stroke-linejoin:miter;stroke-dasharray:none;stroke-dashoffset:0;stroke-opacity:1"
         d="m 38.999993,69.000003 c 4,-1 8,-2 10.5,-4.5 2.50001,-2.5 3.5,-6.5 4.5,-10.5 0.66667,4 1.33334,8 3.83334,10.5 2.5,2.5 6.83334,3.5 11.16667,4.5 -4,1 -7.99999,2 -10.49999,4.5 -2.5,2.5 -3.50001,6.5 -4.50001,10.5 -1,-4 -1.99999,-8 -4.5,-10.5 -2.5,-2.5 -6.5,-3.5 -10.50001,-4.5 z"
         id="path8"
         sodipodi:nodetypes="ccccccccc" /><ellipse
         style="fill:#000000;fill-opacity:1;stroke:none;stroke-width:3.74999;stroke-linecap:butt;stroke-linejoin:miter;stroke-dasharray:none;stroke-dashoffset:0;stroke-opacity:1"
         id="ellipse9"
         cx="121"
         cy="69"
         rx="15"
         ry="14.999999" /><path
         style="fill:#ffffff;fill-opacity:1;stroke:none;stroke-width:3.75;stroke-linecap:butt;stroke-linejoin:miter;stroke-dasharray:none;stroke-dashoffset:0;stroke-opacity:1"
         d="m 105.99999,69.000003 c 4,-1 8,-2 10.5,-4.5 2.50001,-2.5 3.5,-6.5 4.5,-10.5 0.66667,4 1.33334,8 3.83334,10.5 2.5,2.5 6.83334,3.5 11.16667,4.5 -4,1 -7.99999,2 -10.49999,4.5 -2.5,2.5 -3.50001,6.5 -4.50001,10.5 -1,-4 -1.99999,-8 -4.5,-10.5 -2.5,-2.5 -6.5,-3.5 -10.50001,-4.5 z"
         id="path9"
         sodipodi:nodetypes="ccccccccc" /><ellipse
         style="fill:#000000;fill-opacity:1;stroke:none;stroke-width:3.74999;stroke-linecap:butt;stroke-linejoin:miter;stroke-dasharray:none;stroke-dashoffset:0;stroke-opacity:1"
         id="ellipse10"
         cx="87.5"
         cy="69"
         rx="15"
         ry="14.999999" /><path
         style="fill:#ffffff;fill-opacity:1;stroke:none;stroke-width:3.75;stroke-linecap:butt;stroke-linejoin:miter;stroke-dasharray:none;stroke-dashoffset:0;stroke-opacity:1"
         d="m 72.499993,69.000003 c 4,-1 8,-2 10.5,-4.5 2.50001,-2.5 3.5,-6.5 4.5,-10.5 0.66667,4 1.33334,8 3.83334,10.5 2.5,2.5 6.83334,3.5 11.166667,4.5 -3.999997,1 -7.999987,2 -10.499987,4.5 -2.5,2.5 -3.50001,6.5 -4.50001,10.5 -1,-4 -1.99999,-8 -4.5,-10.5 -2.5,-2.5 -6.5,-3.5 -10.50001,-4.5 z"
         id="path10"
         sodipodi:nodetypes="ccccccccc" /></g><circle
       style="fill:#ffffff;fill-opacity:1;stroke:#ff0000;stroke-width:3;stroke-linejoin:bevel;stroke-dasharray:none"
       id="circle10"
       cx="54.000004"
       cy="117.5"
       r="20" /><circle
       style="fill:#ffffff;fill-opacity:1;stroke:#ff0000;stroke-width:3;stroke-linejoin:bevel;stroke-dasharray:none"
       id="circle11"
       cx="121"
       cy="117.5"
       r="20" /><circle
       style="fill:#ffffff;fill-opacity:1;stroke:#ff0000;stroke-width:3;stroke-linejoin:bevel;stroke-dasharray:none"
       id="circle12"
       cx="87.5"
       cy="117.5"
       r="20" /><circle
       style="fill:#ffffff;fill-opacity:1;stroke:none;stroke-width:0;stroke-linejoin:bevel;stroke-dasharray:none;stroke-opacity:1"
       id="circle13"
       cx="54.000004"
       cy="117.5"
       r="18.5" /><circle
       style="fill:#ffffff;fill-opacity:1;stroke:none;stroke-width:0;stroke-linejoin:bevel;stroke-dasharray:none;stroke-opacity:1"
       id="circle14"
       cx="121"
       cy="117.5"
       r="18.5" /><circle
       style="fill:#ffffff;fill-opacity:1;stroke:none;stroke-width:0;stroke-linejoin:bevel;stroke-dasharray:none;stroke-opacity:1"
       id="circle16"
       cx="87.5"
       cy="117.5"
       r="18.5" /><ellipse
       style="fill:#ff0000;fill-opacity:1;stroke:none;stroke-width:3.74999;stroke-linecap:butt;stroke-linejoin:miter;stroke-dasharray:none;stroke-dashoffset:0;stroke-opacity:1"
       id="ellipse16"
       cx="54.000004"
       cy="117.5"
       rx="15"
       ry="14.999999" /><path
       style="fill:#ffffff;fill-opacity:1;stroke:none;stroke-width:3.75;stroke-linecap:butt;stroke-linejoin:miter;stroke-dasharray:none;stroke-dashoffset:0;stroke-opacity:1"
       d="m 38.999992,117.50001 c 4,-1 8,-2 10.5,-4.5 2.50001,-2.5 3.5,-6.5 4.5,-10.5 0.66667,4 1.33334,8 3.83334,10.5 2.5,2.5 6.83334,3.5 11.16667,4.5 -4,1 -7.99999,2 -10.49999,4.5 -2.5,2.5 -3.50001,6.5 -4.50001,10.5 -1,-4 -1.99999,-8 -4.5,-10.5 -2.5,-2.5 -6.5,-3.5 -10.50001,-4.5 z"
       id="path16"
       sodipodi:nodetypes="ccccccccc" /><ellipse
       style="fill:#ff0000;fill-opacity:1;stroke:none;stroke-width:3.74999;stroke-linecap:butt;stroke-linejoin:miter;stroke-dasharray:none;stroke-dashoffset:0;stroke-opacity:1"
       id="ellipse17"
       cx="121"
       cy="117.5"
       rx="15"
       ry="14.999999" /><path
       style="fill:#ffffff;fill-opacity:1;stroke:none;stroke-width:3.75;stroke-linecap:butt;stroke-linejoin:miter;stroke-dasharray:none;stroke-dashoffset:0;stroke-opacity:1"
       d="m 105.99999,117.50001 c 4,-1 8,-2 10.5,-4.5 2.50001,-2.5 3.5,-6.5 4.5,-10.5 0.66667,4 1.33334,8 3.83334,10.5 2.5,2.5 6.83334,3.5 11.16667,4.5 -4,1 -7.99999,2 -10.49999,4.5 -2.5,2.5 -3.50001,6.5 -4.50001,10.5 -1,-4 -1.99999,-8 -4.5,-10.5 -2.5,-2.5 -6.5,-3.5 -10.50001,-4.5 z"
       id="path17"
       sodipodi:nodetypes="ccccccccc" /><ellipse
       style="fill:#ff0000;fill-opacity:1;stroke:none;stroke-width:3.74999;stroke-linecap:butt;stroke-linejoin:miter;stroke-dasharray:none;stroke-dashoffset:0;stroke-opacity:1"
       id="ellipse18"
       cx="87.5"
       cy="117.5"
       rx="15"
       ry="14.999999" /><path
       style="fill:#ffffff;fill-opacity:1;stroke:none;stroke-width:3.75;stroke-linecap:butt;stroke-linejoin:miter;stroke-dasharray:none;stroke-dashoffset:0;stroke-opacity:1"
       d="m 72.499992,117.50001 c 4,-1 8,-2 10.5,-4.5 2.50001,-2.5 3.5,-6.5 4.5,-10.5 0.66667,4 1.33334,8 3.83334,10.5 2.5,2.5 6.83334,3.5 11.166668,4.5 -3.999998,1 -7.999988,2 -10.499988,4.5 -2.5,2.5 -3.50001,6.5 -4.50001,10.5 -1,-4 -1.99999,-8 -4.5,-10.5 -2.5,-2.5 -6.5,-3.5 -10.50001,-4.5 z"
       id="path18"
       sodipodi:nodetypes="ccccccccc" /></g></svg>
